<?xml version="1.0" encoding="UTF-8"?>
<svg id="Layer_2" data-name="Layer 2" xmlns="http://www.w3.org/2000/svg" viewBox="0 0 393.38 175.3">
  <defs>
    <style>
      .cls-1 {
        fill: #0540f2;
      }
    </style>
  </defs>
  <g id="Layer_3" data-name="Layer 3">
    <g>
      <path class="cls-1" d="M142.4,95.26c0,21.9-6.46,39.51-19.37,52.83-12.91,13.32-30.88,19.98-53.92,19.98s-39.05-6.15-51.07-18.46C6.01,137.3,0,120.64,0,99.63s6.49-39.22,19.46-51.97c12.97-12.75,30.91-19.13,53.83-19.13s39.05,5.97,51.07,17.89c12.02,11.93,18.04,28.21,18.04,48.84ZM31.9,96.49c0,20.25,3.42,35.74,10.25,46.47,6.83,10.73,16.86,16.09,30.09,16.09s22.67-4.87,28.91-14.62c6.23-9.75,9.35-25.06,9.35-45.95,0-19.62-3.29-34.7-9.87-45.23-6.58-10.54-16.77-15.81-30.57-15.81s-23.05,4.89-29.1,14.67c-6.04,9.78-9.07,24.57-9.07,44.38Z"/>
      <path class="cls-1" d="M139.66,32.87c15.55-3.72,29.08-7.37,40.59-10.93l1.11.66c.39,8.73,1.02,18.02,1.89,27.85l7.73,87.47c.66,7.5,1.19,12.73,1.58,15.68.28,1.69,1.16,2.69,2.65,3.01l12.11,2.27.68,4.51c-9.35.63-18.62,1.36-27.83,2.17-9.39.83-18.65,1.74-27.78,2.74l-.87-4.5,11.72-4.37c1.42-.51,2.12-1.52,2.11-3.05-.09-2.47-.39-6.6-.91-12.4l-7.25-81.99c-.73-8.26-1.53-15.84-2.39-22.76l-14.24-2.55-.91-3.83Z"/>
      <path class="cls-1" d="M228.9,73.39c14.14-4.42,27.39-5.86,39.76-4.31,11.3,1.41,19.45,5,24.44,10.75,4.99,5.76,6.86,13.37,5.61,22.85l-5.37,39.13c-.53,3.19-.79,5.77-.78,7.75,0,1.98.4,3.54,1.18,4.69.78,1.15,2.04,2.06,3.77,2.72,1.74.66,4.29,1.24,7.68,1.72l.02,4.4c-9.17,1.92-16.92,2.48-23.27,1.69-8.54-1.07-13.74-5.13-15.6-12.19-8.82,5.72-17.68,8.03-26.6,6.91-8.73-1.09-15.65-4.17-20.75-9.24-5.11-5.07-7.17-11.56-6.18-19.47,1.23-9.86,6.7-16.51,16.41-19.95,9.71-3.44,23.7-4.02,41.98-1.74l.98-7.05c.9-6.71-.1-11.86-3-15.44-2.9-3.58-7.84-5.81-14.81-6.68-6.47-.81-14.4-.36-23.8,1.33l-1.7-7.87ZM270.1,118.05c-9.86-1.23-17.05-.85-21.57,1.13-4.52,1.99-7.16,6.03-7.92,12.12-.69,5.53.31,9.65,3,12.38s6.07,4.35,10.16,4.86c4.65.58,8.85-.11,12.6-2.06l3.74-28.42ZM274.53,25.13l22.8,2.85-27.81,32.69-7.91-.99,12.93-34.55Z"/>
    </g>
    <path class="cls-1" d="M341.35,118.08L354.05,0l38.46,7.37.87,1.23-42.38,111.2-9.64-1.72Z"/>
    <path class="cls-1" d="M361.64,156.51c-20.21-1.9-22.51-.42-29.07,18.79,1.9-20.21.42-22.51-18.79-29.07,20.21,1.9,22.51.42,29.07-18.79-1.9,20.21-.42,22.51,18.79,29.07Z"/>
    <path class="cls-1" d="M71.04,89.05c-4.77,54.51-45.28-7.83,6.47,9.95-51.75-17.78-3.01-49.46-7.78,5.06,4.77-54.51,45.28,7.83-6.47-9.95,51.75,17.78,3.01,49.46,7.78-5.06Z"/>
  </g>
</svg>