<?xml version="1.0" encoding="UTF-8"?>
<svg id="Layer_2" data-name="Layer 2" xmlns="http://www.w3.org/2000/svg" viewBox="0 0 1058.75 572.32">
  <defs>
    <style>
      .cls-1 {
        fill: #eca73a;
      }

      .cls-2 {
        stroke: #02a7fc;
      }

      .cls-2, .cls-3, .cls-4 {
        fill: none;
        stroke-miterlimit: 10;
      }

      .cls-5 {
        fill: #0540f2;
      }

      .cls-3 {
        stroke: #a0ea00;
      }

      .cls-4 {
        stroke: #c346e3;
      }
    </style>
  </defs>
  <g id="Layer_3" data-name="Layer 3">
    <path class="cls-3" d="M97.75,408.5c-15.82-2.94-17.74-1.93-24.29,12.76,2.94-15.82,1.93-17.74-12.76-24.29,15.82,2.94,17.74,1.93,24.29-12.76-2.94,15.82-1.93,17.74,12.76,24.29Z"/>
    <path class="cls-5" d="M76.83,528.46c-31.11,8.23-33.71,11.69-32.97,43.86-8.23-31.11-11.69-33.71-43.86-32.97,31.11-8.23,33.71-11.69,32.97-43.86,8.23,31.11,11.69,33.71,43.86,32.97Z"/>
    <path class="cls-1" d="M194.3,82c-31.11,8.23-33.71,11.69-32.97,43.86-8.23-31.11-11.69-33.71-43.86-32.97,31.11-8.23,33.71-11.69,32.97-43.86,8.23,31.11,11.69,33.71,43.86,32.97Z"/>
    <g>
      <line class="cls-4" x1="50.51" y1=".11" x2="57.45" y2="31.44"/>
      <line class="cls-4" x1="38.42" y1="19.22" x2="69.05" y2="12.44"/>
    </g>
    <g>
      <line class="cls-2" x1="1020.06" y1="504.92" x2="1034.49" y2="570.13"/>
      <line class="cls-2" x1="994.88" y1="544.69" x2="1058.64" y2="530.59"/>
      <line class="cls-2" x1="1009.64" y1="565" x2="1044.92" y2="510.04"/>
      <line class="cls-2" x1="999.26" y1="520.75" x2="1055.29" y2="554.3"/>
    </g>
  </g>
</svg>