<?xml version="1.0" encoding="UTF-8"?>
<svg id="Layer_2" data-name="Layer 2" xmlns="http://www.w3.org/2000/svg" viewBox="0 0 1092.41 613.73">
  <defs>
    <style>
      .cls-1 {
        fill: #eca73a;
      }

      .cls-2 {
        stroke: #02a7fc;
      }

      .cls-2, .cls-3, .cls-4, .cls-5 {
        fill: none;
        stroke-miterlimit: 10;
      }

      .cls-3 {
        stroke: #17acf9;
      }

      .cls-6 {
        fill: #0540f2;
      }

      .cls-4 {
        stroke: #a0ea00;
      }

      .cls-5 {
        stroke: #c346e3;
      }
    </style>
  </defs>
  <g id="Layer_3" data-name="Layer 3">
    <path class="cls-4" d="M151.56,326.71c-15.82-2.94-17.74-1.93-24.29,12.76,2.94-15.82,1.93-17.74-12.76-24.29,15.82,2.94,17.74,1.93,24.29-12.76-2.94,15.82-1.93,17.74,12.76,24.29Z"/>
    <path class="cls-6" d="M53.48,610.27c-20.17-25.07-24.4-26.04-53.48-12.28,25.07-20.17,26.04-24.4,12.28-53.48,20.17,25.07,24.4,26.04,53.48,12.28-25.07,20.17-26.04,24.4-12.28,53.48Z"/>
    <path class="cls-3" d="M1088.35,28.35c-15.82-2.94-17.74-1.93-24.29,12.76,2.94-15.82,1.93-17.74-12.76-24.29,15.82,2.94,17.74,1.93,24.29-12.76-2.94,15.82-1.93,17.74,12.76,24.29Z"/>
    <path class="cls-1" d="M364.94,92.3c-31.11,8.23-33.71,11.69-32.97,43.86-8.23-31.11-11.69-33.71-43.86-32.97,31.11-8.23,33.71-11.69,32.97-43.86,8.23,31.11,11.69,33.71,43.86,32.97Z"/>
    <g>
      <line class="cls-5" x1="655.99" y1="289.62" x2="662.92" y2="320.94"/>
      <line class="cls-5" x1="643.89" y1="308.72" x2="674.52" y2="301.95"/>
    </g>
    <g>
      <line class="cls-2" x1="1014.53" y1="548.4" x2="1028.95" y2="613.62"/>
      <line class="cls-2" x1="989.34" y1="588.18" x2="1053.11" y2="574.07"/>
      <line class="cls-2" x1="1004.1" y1="608.49" x2="1039.38" y2="553.53"/>
      <line class="cls-2" x1="993.72" y1="564.24" x2="1049.76" y2="597.79"/>
    </g>
  </g>
</svg>