<?xml version="1.0" encoding="UTF-8"?>
<svg id="Layer_2" data-name="Layer 2" xmlns="http://www.w3.org/2000/svg" viewBox="0 0 377.17 326.26">
  <defs>
    <style>
      .cls-1 {
        fill: #606060;
      }
    </style>
  </defs>
  <g id="Layer_1-2" data-name="Layer 1">
    <g>
      <path class="cls-1" d="M188.59,0C84.45,0,0,74.88,0,167.26c0,73.9,54.04,136.6,128.97,158.71,9.42,1.55,12.89-3.63,12.89-8.05,0-3.99-.18-17.16-.26-31.14-52.47,10.12-63.54-19.73-63.54-19.73-8.58-19.33-20.94-24.47-20.94-24.47-17.11-10.38,1.29-10.17,1.29-10.17,18.94,1.18,28.91,17.24,28.91,17.24,16.82,25.57,44.12,18.18,54.88,13.91,1.69-10.81,6.58-18.19,11.97-22.37-41.89-4.23-85.92-18.57-85.92-82.66,0-18.26,7.37-33.18,19.43-44.89-1.96-4.21-8.41-21.22,1.83-44.26,0,0,15.84-4.5,51.88,17.15,15.04-3.71,31.18-5.56,47.2-5.63,16.03.06,32.17,1.92,47.24,5.63,36-21.64,51.81-17.15,51.81-17.15,10.26,23.04,3.81,40.05,1.85,44.26,12.09,11.71,19.41,26.63,19.41,44.89,0,64.24-44.12,78.39-86.11,82.53,6.76,5.19,12.79,15.37,12.79,30.97,0,22.38-.22,40.39-.22,45.9,0,4.45,3.39,9.67,12.96,8.02,74.89-22.14,128.86-84.82,128.86-158.69C377.17,74.88,292.74,0,188.59,0"/>
      <path class="cls-1" d="M70.63,238.27c-.41.83-1.89,1.08-3.23.51-1.37-.55-2.14-1.68-1.69-2.51.41-.86,1.88-1.09,3.25-.52,1.37.54,2.15,1.69,1.68,2.52M79.91,245.61c-.9.74-2.66.4-3.85-.77-1.23-1.17-1.46-2.72-.55-3.48.93-.74,2.63-.39,3.87.77,1.23,1.18,1.47,2.73.53,3.48M86.27,255c-1.16.71-3.05.04-4.21-1.44-1.16-1.49-1.16-3.27.03-3.99,1.17-.71,3.03-.07,4.22,1.4,1.15,1.51,1.15,3.3-.03,4.03M97.04,265.88c-1.03,1.01-3.23.74-4.85-.64-1.65-1.35-2.11-3.26-1.07-4.27,1.05-1.01,3.26-.73,4.88.64,1.64,1.35,2.14,3.27,1.04,4.27M110.94,269.55c-.45,1.31-2.58,1.9-4.71,1.35-2.13-.57-3.53-2.11-3.1-3.43.44-1.32,2.57-1.94,4.73-1.34,2.13.57,3.53,2.09,3.09,3.43M126.78,271.11c.05,1.38-1.76,2.52-4,2.55-2.26.04-4.08-1.07-4.1-2.43,0-1.39,1.77-2.53,4.02-2.56,2.24-.04,4.08,1.07,4.08,2.44M142.33,270.58c.27,1.35-1.29,2.73-3.52,3.1-2.19.35-4.22-.48-4.49-1.81-.27-1.38,1.32-2.76,3.5-3.12,2.23-.34,4.23.47,4.51,1.83"/>
    </g>
  </g>
</svg>