<?xml version="1.0" encoding="UTF-8"?>
<svg id="Layer_2" data-name="Layer 2" xmlns="http://www.w3.org/2000/svg" viewBox="0 0 1141.65 618.02">
  <defs>
    <style>
      .cls-1 {
        letter-spacing: 0em;
      }

      .cls-2 {
        fill: #fff;
      }

      .cls-3 {
        stroke: #0540f2;
      }

      .cls-3, .cls-4, .cls-5, .cls-6 {
        stroke-miterlimit: 10;
      }

      .cls-3, .cls-5, .cls-6 {
        fill: none;
      }

      .cls-4 {
        stroke: #000;
        stroke-width: 2px;
      }

      .cls-7 {
        fill: #f24141;
      }

      .cls-8, .cls-9 {
        letter-spacing: -.02em;
      }

      .cls-10, .cls-9, .cls-11 {
        font-family: Constantia-Bold, Constantia;
        font-size: 194.42px;
        font-weight: 700;
      }

      .cls-10, .cls-9, .cls-11, .cls-12 {
        fill: #0540f2;
      }

      .cls-5 {
        stroke: #e94d3a;
      }

      .cls-13 {
        fill: #a0ea00;
      }

      .cls-14 {
        letter-spacing: -.03em;
      }

      .cls-11 {
        letter-spacing: -.02em;
      }

      .cls-6 {
        stroke: #a0ea00;
      }

      .cls-15 {
        letter-spacing: -.03em;
      }
    </style>
  </defs>
  <g id="Layer_3" data-name="Layer 3">
    <g>
      <path class="cls-12" d="M872.57,330c-9.61,5.15-13.78,9.33-18.93,18.93-5.15-9.61-9.33-13.78-18.93-18.93,9.61-5.15,13.78-9.33,18.93-18.93,5.15,9.61,9.33,13.78,18.93,18.93Z"/>
      <text class="cls-10" transform="translate(154.53 330.14)"><tspan class="cls-15" x="0" y="0">P</tspan><tspan x="119.14" y="0">o</tspan><tspan class="cls-14" x="235.52" y="0">r</tspan></text>
      <text class="cls-10" transform="translate(569.96 413.13)"><tspan class="cls-1" x="0" y="0">f</tspan><tspan class="cls-8" x="67.5" y="0">o</tspan></text>
      <text class="cls-10" transform="translate(746.12 423.6) rotate(11.36)"><tspan x="0" y="0">l</tspan></text>
      <path class="cls-12" d="M835.15,358.94c13.16-2.68,24.7-5.36,34.62-8.04l.92.6c.06,7.46.31,15.39.75,23.8l1.58,30.49c.33,6.42.62,10.89.86,13.42.18,1.45.9,2.33,2.17,2.64l10.26,2.31.44,3.87c-7.99.25-15.92.58-23.79.99-8.04.42-15.96.91-23.77,1.48l-.61-3.86,10.12-3.36c1.22-.39,1.86-1.23,1.9-2.53,0-2.11-.13-5.64-.39-10.6l-1.35-26.04c-.37-7.06-.81-13.55-1.33-19.48l-11.72-2.39-.66-3.29Z"/>
      <text class="cls-9" transform="translate(903.39 449.91) rotate(-2.97)"><tspan x="0" y="0">o</tspan></text>
      <text class="cls-11" transform="translate(485.11 341.75) rotate(-8.07)"><tspan x="0" y="0">t</tspan></text>
      <path d="M498.08,279.33c2.61,1.33,5.64,1.72,8.48.94,2.64-.72,4.87-2.38,6.47-4.58.48-.66.11-1.67-.54-2.05-.76-.44-1.57-.12-2.05.54-2.45,3.37-7.15,4.44-10.85,2.56-.72-.37-1.63-.19-2.05.54-.39.67-.19,1.68.54,2.05h0Z"/>
      <path class="cls-12" d="M1114.52,38.8c-31.95,3.78-35.02,6.85-38.8,38.8-3.78-31.95-6.85-35.02-38.8-38.8,31.95-3.78,35.02-6.85,38.8-38.8,3.78,31.95,6.85,35.02,38.8,38.8Z"/>
      <path class="cls-3" d="M1137.53,270.03c-14.98,5.87-16.07,7.74-13.86,23.67-5.87-14.98-7.74-16.07-23.67-13.86,14.98-5.87,16.07-7.74,13.86-23.67,5.87,14.98,7.74,16.07,23.67,13.86Z"/>
      <path class="cls-6" d="M115.14,463.38c-15.25-5.13-17.29-4.4-25.84,9.23,5.13-15.25,4.4-17.29-9.23-25.84,15.25,5.13,17.29,4.4,25.84-9.23-5.13,15.25-4.4,17.29,9.23,25.84Z"/>
      <path class="cls-12" d="M77.6,579.22c-31.95,3.78-35.02,6.85-38.8,38.8-3.78-31.95-6.85-35.02-38.8-38.8,31.95-3.78,35.02-6.85,38.8-38.8,3.78,31.95,6.85,35.02,38.8,38.8Z"/>
      <rect class="cls-7" x="831.55" y="196.78" width="224.85" height="44.01" rx="12.77" ry="12.77"/>
      <path class="cls-12" d="M847.93,170.46c3.43-10.97,11.56-20.1,21.98-24.9,1.75-.81.23-3.39-1.51-2.59-11.12,5.12-19.71,15.03-23.36,26.7-.58,1.85,2.32,2.64,2.89.8h0Z"/>
      <path class="cls-12" d="M854.77,181.5c6.5-3.52,13.93-4.85,21.26-3.91.81.1,1.49-.76,1.5-1.5,0-.9-.7-1.4-1.5-1.5-7.83-1-15.84.56-22.77,4.32-1.7.92-.18,3.51,1.51,2.59h0Z"/>
      <g>
        <path class="cls-2" d="M867.51,220.52v-11.16h3.67v11.02c0,4.07,1.84,5.82,5.03,5.82s5-1.75,5-5.82v-11.02h3.62v11.16c0,5.77-3.25,8.9-8.65,8.9s-8.68-3.14-8.68-8.9Z"/>
        <path class="cls-2" d="M902.15,229.14l-5.37-7.52-5.31,7.52h-4.18l7.35-10.09-6.95-9.69h4.15l5.06,7.04,5-7.04h3.98l-6.92,9.55,7.43,10.23h-4.24Z"/>
        <path class="cls-2" d="M917.06,209.36h8.65c6.42,0,10.79,3.96,10.79,9.89s-4.38,9.89-10.79,9.89h-8.65v-19.78ZM925.54,226.04c4.41,0,7.26-2.68,7.26-6.78s-2.85-6.78-7.26-6.78h-4.8v13.56h4.8Z"/>
        <path class="cls-2" d="M954.19,222.73h-11.84c.42,2.2,2.26,3.62,4.89,3.62,1.7,0,3.02-.54,4.1-1.64l1.89,2.18c-1.36,1.61-3.48,2.46-6.08,2.46-5.06,0-8.34-3.25-8.34-7.74s3.31-7.71,7.8-7.71,7.63,3.08,7.63,7.8c0,.28-.03.71-.06,1.05ZM942.32,220.38h8.56c-.28-2.18-1.95-3.67-4.27-3.67s-3.96,1.47-4.29,3.67Z"/>
        <path class="cls-2" d="M955.91,227.65l1.36-2.69c1.33.88,3.36,1.5,5.26,1.5,2.23,0,3.17-.62,3.17-1.67,0-2.88-9.33-.17-9.33-6.19,0-2.85,2.57-4.72,6.64-4.72,2.01,0,4.3.48,5.65,1.3l-1.36,2.68c-1.44-.85-2.88-1.13-4.32-1.13-2.15,0-3.17.71-3.17,1.7,0,3.05,9.33.34,9.33,6.25,0,2.83-2.6,4.66-6.84,4.66-2.52,0-5.03-.73-6.39-1.7Z"/>
        <path class="cls-2" d="M971.71,209.45c0-1.19.96-2.12,2.26-2.12s2.26.88,2.26,2.04c0,1.24-.93,2.2-2.26,2.2s-2.26-.93-2.26-2.12ZM972.19,214.05h3.53v15.09h-3.53v-15.09Z"/>
        <path class="cls-2" d="M995.33,214.05v12.8c0,5.48-2.85,7.97-8.14,7.97-2.83,0-5.62-.73-7.35-2.15l1.58-2.66c1.33,1.1,3.48,1.81,5.57,1.81,3.33,0,4.8-1.53,4.8-4.58v-.79c-1.24,1.36-3.02,2.01-5.06,2.01-4.32,0-7.63-2.94-7.63-7.32s3.31-7.26,7.63-7.26c2.12,0,3.98.68,5.23,2.18v-2.01h3.36ZM991.85,221.15c0-2.54-1.92-4.27-4.58-4.27s-4.61,1.72-4.61,4.27,1.92,4.32,4.61,4.32,4.58-1.75,4.58-4.32Z"/>
        <path class="cls-2" d="M1014.82,220.5v8.65h-3.53v-8.2c0-2.68-1.33-3.98-3.59-3.98-2.52,0-4.21,1.53-4.21,4.55v7.63h-3.53v-15.09h3.36v1.95c1.16-1.38,3-2.12,5.2-2.12,3.62,0,6.3,2.06,6.3,6.61Z"/>
      </g>
      <g>
        <line class="cls-5" x1="38.8" y1="43.46" x2="45.73" y2="74.78"/>
        <line class="cls-5" x1="26.7" y1="62.56" x2="57.33" y2="55.79"/>
      </g>
      <g>
        <line class="cls-5" x1="323.77" y1="110.61" x2="330.7" y2="141.94"/>
        <line class="cls-5" x1="311.67" y1="129.72" x2="342.31" y2="122.94"/>
        <line class="cls-5" x1="318.76" y1="139.47" x2="335.71" y2="113.07"/>
        <line class="cls-5" x1="313.78" y1="118.22" x2="340.7" y2="134.33"/>
      </g>
      <path class="cls-12" d="M559.6,104.58c14.72-3.44,29.52-6.92,44.62-8.15,13.66-1.11,27.33-.15,40.58,3.41,24.7,6.63,46.78,21.5,61.98,42.08,8.29,11.23,14.53,23.91,18.28,37.36.29,1.03,1.75,1.53,2.51.66,11.35-12.88,27.59-21.24,44.65-23.1,16.85-1.83,33.76,2.96,47.47,12.85,7.57,5.46,14.02,12.46,18.79,20.49.99,1.66,3.58.15,2.59-1.51-8.9-14.97-23.36-26.32-39.87-31.75s-35.44-4.19-51.63,3.14c-9.17,4.15-17.47,10.22-24.12,17.77l2.51.66c-6.87-24.61-21.9-46.69-42.3-62.07-21.73-16.38-48.98-24.54-76.12-23.32-17.2.77-34.04,4.69-50.75,8.59-1.88.44-1.08,3.33.8,2.89h0Z"/>
      <path class="cls-4" d="M499.53,263.66l1.01,7.08"/>
      <path class="cls-4" d="M507.05,262.59l1.01,7.08"/>
      <path class="cls-13" d="M174.88,394.6c6.56,21.98,18.75,42.17,35.06,58.29,17.2,17.01,38.93,29.09,62.39,34.97,13.52,3.39,27.55,4.73,41.46,3.88,1.92-.12,1.93-3.12,0-3-24.19,1.48-48.67-3.74-70.16-14.95-20.29-10.58-37.56-26.47-49.98-45.67-6.88-10.63-12.24-22.19-15.86-34.32-.55-1.85-3.45-1.06-2.89.8h0Z"/>
    </g>
  </g>
</svg>