<?xml version="1.0" encoding="UTF-8"?>
<svg id="Layer_2" data-name="Layer 2" xmlns="http://www.w3.org/2000/svg" viewBox="0 0 142.48 142.48">
  <defs>
    <style>
      .cls-1 {
        fill: #727172;
      }
    </style>
  </defs>
  <g id="Layer_1-2" data-name="Layer 1">
    <g>
      <g>
        <path class="cls-1" d="M86.17,109.76h-29.86c-13,0-23.58-10.58-23.58-23.58v-29.86c0-13,10.58-23.58,23.58-23.58h29.86c13,0,23.58,10.58,23.58,23.58v29.86c0,13-10.58,23.58-23.58,23.58ZM56.31,38.5c-9.82,0-17.82,7.99-17.82,17.82v29.86c0,9.82,7.99,17.82,17.82,17.82h29.86c9.82,0,17.82-7.99,17.82-17.82v-29.86c0-9.82-7.99-17.82-17.82-17.82h-29.86Z"/>
        <path class="cls-1" d="M71.24,90.73c-10.74,0-19.48-8.74-19.48-19.49s8.74-19.49,19.48-19.49,19.48,8.74,19.48,19.49-8.74,19.49-19.48,19.49ZM71.24,57.66c-7.49,0-13.58,6.09-13.58,13.58s6.09,13.58,13.58,13.58,13.58-6.09,13.58-13.58-6.09-13.58-13.58-13.58Z"/>
        <path class="cls-1" d="M97.92,49.64c0,2.8-2.27,5.07-5.07,5.07s-5.07-2.27-5.07-5.07,2.27-5.07,5.07-5.07,5.07,2.27,5.07,5.07Z"/>
      </g>
      <path class="cls-1" d="M99.86,142.48h-57.23C19.12,142.48,0,123.36,0,99.86v-57.23C0,19.12,19.12,0,42.63,0h57.23c23.51,0,42.63,19.12,42.63,42.63v57.23c0,23.5-19.12,42.63-42.63,42.63ZM42.63,5.92C22.39,5.92,5.92,22.38,5.92,42.63v57.23c0,20.24,16.47,36.71,36.71,36.71h57.23c20.24,0,36.71-16.47,36.71-36.71v-57.23c0-20.24-16.47-36.71-36.71-36.71h-57.23Z"/>
    </g>
  </g>
</svg>