<?xml version="1.0" encoding="UTF-8"?>
<svg id="Layer_2" data-name="Layer 2" xmlns="http://www.w3.org/2000/svg" viewBox="0 0 244.89 16.18">
  <defs>
    <style>
      .cls-1 {
        fill: #eb4b3e;
      }
    </style>
  </defs>
  <g id="Layer_3" data-name="Layer 3">
    <path class="cls-1" d="M.38,2.62c3.93,4.63,9.49,10.31,16.13,9.82,2.95-.22,5.38-1.66,7.63-3.48,2.01-1.63,3.85-3.68,6.23-4.8,4.48-2.11,7.87,2.15,10.57,5.1,3.01,3.29,6.86,6.61,11.58,4.56,2.29-.99,3.96-2.92,5.69-4.64,1.39-1.39,3.12-3.09,5.27-2.79s3.64,2.37,4.89,3.92c1.46,1.8,2.93,3.77,5.02,4.89,4.33,2.33,8.32-.26,11.35-3.36,2.48-2.54,5.77-7.35,9.94-6.23,2.04.55,3.57,2.28,4.92,3.8,1.53,1.73,2.95,3.56,4.8,4.97,1.68,1.28,3.69,2.02,5.82,1.75,2.35-.3,4.25-1.73,5.83-3.41,2.57-2.74,5.55-8.2,10.09-6.3s6.77,6.75,11.74,7.32c5.7.66,7.96-5.18,12.22-7.55s8.28,2.41,11.28,4.81c1.88,1.5,3.95,2.94,6.37,3.36s4.7-.17,6.76-1.38c3.94-2.32,6.62-6.66,10.88-8.43,6.07-2.52,9.89,5.23,13.85,8.3,2.49,1.93,5.69,3.17,8.78,1.98,2.26-.88,3.82-2.74,5.13-4.71,1.23-1.84,2.24-3.9,3.85-5.45,2.3-2.21,5.26-1.61,7.76-.04,2.84,1.77,4.93,4.5,7.79,6.27,2.57,1.59,5.51,2.15,8.35.94,2.32-.99,4.15-3.1,3.97-5.74-.13-1.92-3.13-1.93-3,0,.18,2.53-2.91,3.74-5.04,3.37-3.05-.53-5.41-3.26-7.62-5.2-2.43-2.14-5.44-4.17-8.82-4.12-2.61.04-4.82,1.43-6.43,3.4-2.49,3.03-4.72,9.87-9.75,8.6-3.15-.79-5.28-3.67-7.36-5.95-1.97-2.16-4.31-4.35-7.27-4.96-5-1.02-8.86,2.55-12.24,5.67-3.16,2.91-6.85,6.09-11.28,3.7-4.03-2.17-6.79-6.45-11.31-7.76-5.5-1.59-8.69,3.04-12.29,6.21-1.64,1.45-3.59,2.21-5.7,1.32s-3.79-2.71-5.53-4.15-3.74-2.85-6.1-3.15-4.38.57-6.13,1.99-3.15,3.4-4.7,5.11c-1.28,1.42-2.83,2.97-4.87,3.01s-3.49-1.27-4.77-2.58c-1.61-1.65-2.98-3.53-4.65-5.11s-3.46-2.72-5.68-2.99c-2.08-.25-4.11.43-5.82,1.6-1.87,1.29-3.41,2.98-4.96,4.62-1.35,1.44-2.76,3.02-4.57,3.9-4.33,2.1-7.21-3.06-9.59-5.76-1.43-1.62-3.18-3.09-5.38-3.43-2.45-.37-4.59.66-6.43,2.2-2.96,2.48-6.11,7.67-10.56,5.07-3.78-2.21-5.84-6.53-9.61-8.82-1.98-1.2-4.29-1.65-6.56-1.1-2.46.59-4.49,2.27-6.36,3.89-1.97,1.71-3.97,3.72-6.54,4.46-2.98.86-5.92-.3-8.4-1.95C6.85,5.4,4.59,2.96,2.5.5,1.25-.98-.86,1.15.38,2.62H.38Z"/>
  </g>
</svg>